<svg width="1227" height="451" xmlns="http://www.w3.org/2000/svg" xmlns:xlink="http://www.w3.org/1999/xlink" xml:space="preserve" overflow="hidden"><defs><linearGradient x1="613.28" y1="-272.622" x2="613.28" y2="177.331" gradientUnits="userSpaceOnUse" spreadMethod="reflect" id="fill0"><stop offset="0" stop-color="#6E3420"/><stop offset="0.33" stop-color="#BF5B37"/><stop offset="0.665" stop-color="#97482C"/><stop offset="1" stop-color="#BF5B37"/></linearGradient><linearGradient x1="458.28" y1="-272.622" x2="458.28" y2="177.331" gradientUnits="userSpaceOnUse" spreadMethod="reflect" id="fill1"><stop offset="0" stop-color="#6E3420"/><stop offset="0.33" stop-color="#BF5B37"/><stop offset="0.665" stop-color="#97482C"/><stop offset="1" stop-color="#BF5B37"/></linearGradient><linearGradient x1="314.28" y1="-270.622" x2="314.28" y2="179.331" gradientUnits="userSpaceOnUse" spreadMethod="reflect" id="fill2"><stop offset="0" stop-color="#6E3420"/><stop offset="0.33" stop-color="#BF5B37"/><stop offset="0.665" stop-color="#97482C"/><stop offset="1" stop-color="#BF5B37"/></linearGradient><linearGradient x1="160.28" y1="-270.622" x2="160.28" y2="179.331" gradientUnits="userSpaceOnUse" spreadMethod="reflect" id="fill3"><stop offset="0" stop-color="#6E3420"/><stop offset="0.33" stop-color="#BF5B37"/><stop offset="0.665" stop-color="#97482C"/><stop offset="1" stop-color="#BF5B37"/></linearGradient><linearGradient x1="6.28038" y1="-272.622" x2="6.28038" y2="177.331" gradientUnits="userSpaceOnUse" spreadMethod="reflect" id="fill4"><stop offset="0" stop-color="#6E3420"/><stop offset="0.33" stop-color="#BF5B37"/><stop offset="0.665" stop-color="#97482C"/><stop offset="1" stop-color="#BF5B37"/></linearGradient><linearGradient x1="-158.72" y1="-272.622" x2="-158.72" y2="177.331" gradientUnits="userSpaceOnUse" spreadMethod="reflect" id="fill5"><stop offset="0" stop-color="#6E3420"/><stop offset="0.33" stop-color="#BF5B37"/><stop offset="0.665" stop-color="#97482C"/><stop offset="1" stop-color="#BF5B37"/></linearGradient><linearGradient x1="-347.719" y1="-272.622" x2="-347.719" y2="177.331" gradientUnits="userSpaceOnUse" spreadMethod="reflect" id="fill6"><stop offset="0" stop-color="#6E3420"/><stop offset="0.33" stop-color="#BF5B37"/><stop offset="0.665" stop-color="#97482C"/><stop offset="1" stop-color="#BF5B37"/></linearGradient><linearGradient x1="-513.719" y1="-272.622" x2="-513.719" y2="177.331" gradientUnits="userSpaceOnUse" spreadMethod="reflect" id="fill7"><stop offset="0" stop-color="#6E3420"/><stop offset="0.33" stop-color="#BF5B37"/><stop offset="0.665" stop-color="#97482C"/><stop offset="1" stop-color="#BF5B37"/></linearGradient><linearGradient x1="372.28" y1="0.37826" x2="372.28" y2="450.331" gradientUnits="userSpaceOnUse" spreadMethod="reflect" id="fill8"><stop offset="0" stop-color="#6E3420"/><stop offset="0.33" stop-color="#BF5B37"/><stop offset="0.665" stop-color="#97482C"/><stop offset="1" stop-color="#BF5B37"/></linearGradient><linearGradient x1="196.28" y1="0.37826" x2="196.28" y2="450.331" gradientUnits="userSpaceOnUse" spreadMethod="reflect" id="fill9"><stop offset="0" stop-color="#6E3420"/><stop offset="0.33" stop-color="#BF5B37"/><stop offset="0.665" stop-color="#97482C"/><stop offset="1" stop-color="#BF5B37"/></linearGradient><linearGradient x1="42.2805" y1="0.37826" x2="42.2805" y2="450.331" gradientUnits="userSpaceOnUse" spreadMethod="reflect" id="fill10"><stop offset="0" stop-color="#6E3420"/><stop offset="0.33" stop-color="#BF5B37"/><stop offset="0.665" stop-color="#97482C"/><stop offset="1" stop-color="#BF5B37"/></linearGradient><linearGradient x1="-82.7193" y1="-1.62181" x2="-82.7193" y2="448.331" gradientUnits="userSpaceOnUse" spreadMethod="reflect" id="fill11"><stop offset="0" stop-color="#6E3420"/><stop offset="0.33" stop-color="#BF5B37"/><stop offset="0.665" stop-color="#97482C"/><stop offset="1" stop-color="#BF5B37"/></linearGradient><linearGradient x1="-217.719" y1="0.37826" x2="-217.719" y2="450.331" gradientUnits="userSpaceOnUse" spreadMethod="reflect" id="fill12"><stop offset="0" stop-color="#6E3420"/><stop offset="0.33" stop-color="#BF5B37"/><stop offset="0.665" stop-color="#97482C"/><stop offset="1" stop-color="#BF5B37"/></linearGradient></defs><g transform="translate(-1587 -1831)"><path d="M119.358 0.333488 100.17 41.142 25.5544 41.142 6.15391 0.333488 0.184623 0.333488 65.6336 138.333 73.9481 138.333 139.184 0.333488 119.358 0.333488M27.2596 45.0846 98.2521 45.0846 62.8621 120.196 27.2596 45.0846Z" fill="url(#fill0)" fill-rule="evenodd" transform="matrix(1 0 0 -1 1587 2009)"/><path d="M115.21 138.333 115.21 135.179 21.5457 4.27611 114.997 4.27611 114.997 0.333488 0.210087 0.333488 0.210087 3.48769 93.8742 134.391 3.19709 134.391 3.19709 138.333 115.21 138.333Z" fill="url(#fill1)" fill-rule="evenodd" transform="matrix(1 0 0 -1 1742 2009)"/><path d="M61.7034 155.28 57.0245 155.28 70.2112 179.331 96.1598 179.331 61.7034 155.28M65.107 0.329994C52.4868 0.329994 41.2849 2.63 31.5012 7.22951 21.717 11.9609 14.0604 18.5981 8.53032 27.1406 3.00024 35.6832 0.235208 45.6059 0.235208 56.9083L0.235208 140.297 19.1652 140.297 19.1652 53.7542C19.1652 44.2914 21.2208 36.0117 25.3332 28.915 29.5868 21.8179 35.5422 16.2981 43.1993 12.3551 50.8565 8.54401 59.7187 6.63821 69.7859 6.63821 79.9954 6.63821 88.7867 8.54401 96.1598 12.3551 103.533 16.2981 109.205 21.8179 113.175 28.915 117.146 36.0117 119.131 44.2914 119.131 53.7542L119.131 140.297 124.235 140.297 124.235 53.5571C124.235 42.9117 121.825 33.5802 117.004 25.5633 112.325 17.5464 105.59 11.3039 96.7983 6.83531 88.0065 2.4986 77.443 0.329994 65.107 0.329994Z" fill="url(#fill2)" fill-rule="evenodd" transform="matrix(1 0 0 -1 1886 2011)"/><path d="M132.611 30.3113 137.262 27.5502C134.302 22.4224 129.933 17.7547 124.154 13.547 118.375 9.47138 111.61 6.25018 103.857 3.88346 96.1056 1.51673 87.6488 0.333622 78.4874 0.333622 67.4934 0.333622 57.2041 2.10829 47.6199 5.65863 38.1766 9.20846 29.8607 14.1391 22.6722 20.45 15.6251 26.8924 10.1281 34.387 6.18129 42.9332 2.23498 51.6113 0.261557 61.0777 0.261557 71.3334 0.261557 81.3261 2.16452 90.5953 5.9699 99.1415 9.91675 107.82 15.3433 115.379 22.2494 121.822 29.297 128.265 37.542 133.261 46.9858 136.811 56.57 140.493 67.0002 142.334 78.276 142.334 89.2694 142.334 99.0655 140.69 107.663 137.403 116.261 134.116 123.026 129.777 127.96 124.386 133.034 119.127 135.571 113.342 135.571 107.03L135.571 106.833C135.571 103.941 134.513 101.508 132.399 99.5364 130.426 97.564 127.819 96.5776 124.577 96.5776 121.335 96.5776 118.587 97.564 116.331 99.5364 114.217 101.508 113.16 104.006 113.16 107.03 113.16 110.055 114.217 112.553 116.331 114.525 118.587 116.497 121.335 117.483 124.577 117.483 125.422 117.483 126.057 117.418 126.479 117.286 123.519 123.334 118.234 128.199 110.623 131.881 103.153 135.694 93.9913 137.6 83.1383 137.6 70.3124 137.6 59.1775 134.839 49.7343 129.317 40.2904 123.926 32.9615 116.3 27.7464 106.439 22.5313 96.5776 19.9237 84.9416 19.9237 71.5305 19.9237 58.1194 22.5313 46.4178 27.7464 36.425 32.9615 26.4323 40.22 18.6749 49.5229 13.1527 58.8252 7.76194 69.6782 5.06657 82.0814 5.06657 93.639 5.06657 103.787 7.36757 112.526 11.9696 121.265 16.5716 127.96 22.6853 132.611 30.3113Z" fill="url(#fill3)" fill-rule="evenodd" transform="matrix(1 0 0 -1 2040 2011)"/><path d="M119.464 0.333488 100.277 41.142 25.6609 41.142 6.26048 0.333488 0.291198 0.333488 65.7407 138.333 74.0547 138.333 139.291 0.333488 119.464 0.333488M27.3661 45.0846 98.3587 45.0846 62.9692 120.196 27.3661 45.0846Z" fill="url(#fill4)" fill-rule="evenodd" transform="matrix(1 0 0 -1 2194 2009)"/><path d="M110.637 15.3161C112.49 12.2933 114.628 9.40187 117.051 6.64189 119.617 3.8819 122.039 1.77893 124.32 0.333488L102.513 0.333488C100.09 1.91034 97.952 3.68479 96.0995 5.65636 94.2464 7.62742 92.6784 9.66468 91.3958 11.7676L68.7337 48.4364C67.3086 50.6703 65.4556 52.7732 63.175 54.7448 61.0369 56.7164 58.5431 58.2932 55.6925 59.4763L19.3474 59.4763 19.3474 0.333488 0.320091 0.333488 0.320091 138.333 59.1131 138.333C69.5174 138.333 78.7822 136.625 86.9059 133.208 95.0302 129.791 101.444 125.125 106.148 119.211 110.994 113.296 113.416 106.593 113.416 99.1017 113.416 92.2677 111.492 86.0907 107.644 80.5707 103.796 75.0502 98.522 70.5163 91.8233 66.9674 85.1247 63.419 77.3567 61.1189 68.5199 60.0677 73.6511 58.7531 78.2117 56.8478 82.2028 54.3506 86.1934 51.8534 89.2578 48.8963 91.3958 45.4788L110.637 15.3161M19.3474 134.391 19.3474 63.419 55.4788 63.419C66.8806 63.419 76.0741 66.6389 83.0578 73.0792 90.0415 79.519 93.5339 88.1274 93.5339 98.9046 93.5339 109.682 90.0415 118.291 83.0578 124.73 76.0741 131.17 66.8806 134.391 55.4788 134.391L19.3474 134.391Z" fill="url(#fill5)" fill-rule="evenodd" transform="matrix(1 0 0 -1 2359 2009)"/><path d="M119.527 0.333488 100.34 41.142 25.7229 41.142 6.32294 0.333488 0.353637 0.333488 65.8028 138.333 74.1173 138.333 139.354 0.333488 119.527 0.333488M27.4286 45.0846 98.4208 45.0846 63.0313 120.196 27.4286 45.0846Z" fill="url(#fill6)" fill-rule="evenodd" transform="matrix(1 0 0 -1 2548 2009)"/><path d="M19.2032 4.27611 99.3765 4.27611 99.3765 0.333488 0.375999 0.333488 0.375999 138.333 19.2032 138.333 19.2032 4.27611Z" fill="url(#fill7)" fill-rule="evenodd" transform="matrix(1 0 0 -1 2714 2009)"/><path d="M122.697 60.3036 141.227 60.3036 141.227 2.33671 139.097 2.33671 126.957 16.2408C122.555 11.4106 116.165 7.55896 107.788 4.68678 99.4098 1.81459 89.9673 0.378245 79.4595 0.378245 68.2419 0.378245 57.8057 2.14092 48.1497 5.66576 38.4943 9.1911 30.0456 14.1523 22.8041 20.5493 15.7041 26.9464 10.1663 34.3881 6.19066 42.8742 2.21448 51.4912 0.226934 60.8257 0.226934 70.8786 0.226934 80.9315 2.21448 90.2008 6.19066 98.6868 10.1663 107.304 15.7751 114.81 23.0171 121.208 30.2585 127.605 38.7072 132.566 48.3627 136.091 58.1606 139.616 68.8808 141.379 80.5248 141.379 91.174 141.379 100.759 139.877 109.278 136.875 117.798 134.003 124.543 130.02 129.512 124.929 134.482 119.967 136.967 114.288 136.967 107.891 136.967 104.889 135.903 102.408 133.772 100.449 131.784 98.491 129.228 97.512 126.105 97.512 122.697 97.512 119.857 98.491 117.585 100.449 115.455 102.408 114.39 104.889 114.39 107.891 114.39 110.894 115.455 113.375 117.585 115.333 119.857 117.291 122.697 118.271 126.105 118.271 126.815 118.271 127.383 118.205 127.809 118.075 124.969 123.95 119.786 128.519 112.26 131.783 104.735 135.047 95.7181 136.679 85.2103 136.679 71.7207 136.679 60.0772 133.937 50.2798 128.454 40.6243 123.101 33.1694 115.464 27.9155 105.541 22.6616 95.6188 20.0352 83.869 20.0352 70.2912 20.0352 56.9746 22.5197 45.3548 27.4896 35.4329 32.6015 25.641 39.772 18.0035 49.002 12.5202 58.2316 7.03684 69.0943 4.29518 81.5896 4.29518 91.6709 4.29518 100.333 5.92683 107.575 9.1911 114.816 12.5854 119.857 17.2203 122.697 23.0952L122.697 60.3036Z" fill="url(#fill8)" fill-rule="evenodd" transform="matrix(1 0 0 -1 1828 2282)"/><path d="M65.1276 0.378626C52.5079 0.378626 41.306 2.66274 31.5217 7.23047 21.738 11.9292 14.0808 18.5205 8.55075 27.004 3.0212 35.4875 0.256152 45.3417 0.256152 56.566L0.256152 139.379 19.1856 139.379 19.1856 53.4337C19.1856 44.0363 21.2418 35.8138 25.3537 28.7657 29.6078 21.7181 35.5632 16.2364 43.2199 12.3207 50.877 8.53589 59.7393 6.64325 69.807 6.64325 80.0161 6.64325 88.8074 8.53589 96.181 12.3207 103.554 16.2364 109.226 21.7181 113.197 28.7657 117.167 35.8138 119.152 44.0363 119.152 53.4337L119.152 139.379 124.257 139.379 124.257 53.238C124.257 42.6661 121.846 33.3992 117.025 25.4376 112.345 17.4761 105.61 11.2767 96.819 6.83899 88.0277 2.53225 77.4637 0.378626 65.1276 0.378626Z" fill="url(#fill9)" fill-rule="evenodd" transform="matrix(1 0 0 -1 2004 2282)"/><path d="M60.981 78.3204C67.2507 76.2314 73.235 74.0119 78.9344 71.6618 84.6338 69.3118 89.7628 66.6354 94.3225 63.6327 99.0247 60.6299 102.658 57.0398 105.223 52.8618 107.93 48.8148 109.283 43.8537 109.283 37.9788 109.283 30.4064 106.932 23.7478 102.231 18.0035 97.6708 12.3896 91.2591 8.01582 82.995 4.88257 74.8733 1.87985 65.5407 0.378245 54.9967 0.378245 44.7381 0.378245 35.4768 1.74932 27.2126 4.49098 18.9485 7.36317 12.3943 11.1491 7.54971 15.8492 2.70507 20.6799 0.283296 26.0979 0.283296 32.1033 0.283296 34.9755 1.35173 37.2603 3.48913 38.9577 5.62599 40.7857 8.262 41.6994 11.3966 41.6994 14.2463 41.6994 16.6686 40.7857 18.6636 38.9577 20.6585 37.2603 21.6557 34.9755 21.6557 32.1033 21.6557 29.2312 20.6585 26.8811 18.6636 25.0537 16.6686 23.2257 14.2463 22.312 11.3966 22.312L9.9008 22.312C13.0354 17.0897 18.3786 12.8465 25.93 9.5827 33.6243 6.31891 42.4583 4.68678 52.4319 4.68678 60.5536 4.68678 67.7493 5.79629 74.0185 8.01582 80.2878 10.2354 85.2036 13.3033 88.7656 17.2203 92.3276 21.1367 94.1088 25.641 94.1088 30.7328 94.1088 36.2161 92.1139 40.8509 88.1245 44.6369 84.2771 48.4228 79.0769 51.7523 72.5222 54.6245 66.1105 57.4967 59.0578 60.3036 51.3635 63.0453 45.949 65.0037 40.4633 67.1575 34.9064 69.5076 29.35 71.8576 24.2205 74.5993 19.5183 77.7325 14.8167 80.9968 10.9692 84.7827 7.97708 89.0913 5.12739 93.3993 3.70282 98.491 3.70282 104.366 3.70282 111.677 5.91091 118.075 10.3282 123.558 14.8879 129.172 21.0859 133.545 28.9221 136.679 36.7589 139.812 45.5929 141.379 55.4246 141.379 64.5435 141.379 72.6647 140.073 79.7892 137.462 87.0556 134.851 92.8262 131.326 97.101 126.887 101.375 122.448 103.513 117.422 103.513 111.808 103.513 108.936 102.515 106.585 100.521 104.758 98.5256 103.061 96.1038 102.212 93.2541 102.212 90.1189 102.212 87.4835 103.061 85.3461 104.758 83.2087 106.585 82.1403 108.936 82.1403 111.808 82.1403 114.68 83.2087 117.03 85.3461 118.858 87.4835 120.686 90.1189 121.6 93.2541 121.6L94.1088 121.6C91.2591 126.169 86.557 129.89 80.0028 132.762 73.4487 135.634 65.8969 137.071 57.3478 137.071 49.9389 137.071 43.313 135.895 37.4712 133.545 31.6293 131.326 26.9989 128.192 23.5794 124.145 20.1594 120.228 18.4499 115.79 18.4499 110.829 18.4499 105.215 20.5155 100.449 24.6478 96.533 28.7797 92.6161 34.1229 89.2218 40.677 86.3496 47.2317 83.6079 53.9995 80.9315 60.981 78.3204Z" fill="url(#fill10)" fill-rule="evenodd" transform="matrix(1 0 0 -1 2158 2282)"/><path d="M119.304 137.379 119.304 133.464 69.4554 133.464 69.4554 0.378015 50.5763 0.378015 50.5763 133.464 0.303664 133.464 0.303664 137.379 119.304 137.379Z" fill="url(#fill11)" fill-rule="evenodd" transform="matrix(1 0 0 -1 2283 2280)"/><path d="M77.7252 0.378245C66.6689 0.378245 56.3919 2.14092 46.8951 5.66576 37.5399 9.1911 29.3893 14.1523 22.4439 20.5493 15.498 26.9464 10.0407 34.3881 6.07198 42.8742 2.24498 51.4912 0.331218 60.8257 0.331218 70.8786 0.331218 80.9315 2.24498 90.2008 6.07198 98.6868 10.0407 107.304 15.498 114.81 22.4439 121.208 29.3893 127.605 37.5399 132.566 46.8951 136.091 56.3919 139.616 66.6689 141.379 77.7252 141.379 88.781 141.379 98.9871 139.616 108.342 136.091 117.84 132.566 126.061 127.605 133.006 121.208 140.094 114.81 145.551 107.304 149.378 98.6868 153.347 90.2008 155.332 80.9315 155.332 70.8786 155.332 60.8257 153.347 51.4912 149.378 42.8742 145.551 34.3881 140.094 26.9464 133.006 20.5493 126.061 14.1523 117.84 9.1911 108.342 5.66576 98.9871 2.14092 88.781 0.378245 77.7252 0.378245M77.7252 4.29518C89.3485 4.29518 99.4831 7.03684 108.13 12.5202 116.776 18.134 123.51 25.9021 128.329 35.8245 133.148 45.8769 135.558 57.5619 135.558 70.8786 135.558 84.3259 133.148 96.0104 128.329 105.933 123.51 115.855 116.776 123.558 108.13 129.041 99.4831 134.655 89.3485 137.462 77.7252 137.462 66.2437 137.462 56.1794 134.655 47.5328 129.041 38.8862 123.558 32.1534 115.855 27.3338 105.933 22.5148 96.0104 20.105 84.3259 20.105 70.8786 20.105 57.5619 22.5148 45.8769 27.3338 35.8245 32.1534 25.9021 38.8862 18.134 47.5328 12.5202 56.1794 7.03684 66.2437 4.29518 77.7252 4.29518Z" fill="url(#fill12)" fill-rule="evenodd" transform="matrix(1 0 0 -1 2418 2282)"/></g></svg>