<svg width="1334" height="1574" xmlns="http://www.w3.org/2000/svg" xmlns:xlink="http://www.w3.org/1999/xlink" xml:space="preserve" overflow="hidden"><defs><clipPath id="clip0"><rect x="1533" y="193" width="1334" height="1574"/></clipPath><linearGradient x1="2200" y1="193" x2="2200" y2="1173" gradientUnits="userSpaceOnUse" spreadMethod="reflect" id="fill1"><stop offset="0" stop-color="#DB908A"/><stop offset="0.04" stop-color="#DB908A"/><stop offset="0.52" stop-color="#F2ACA5"/><stop offset="1" stop-color="#B76A64"/></linearGradient><linearGradient x1="2195" y1="1278" x2="2195" y2="1601" gradientUnits="userSpaceOnUse" spreadMethod="reflect" id="fill2"><stop offset="0" stop-color="#DB908A"/><stop offset="0.04" stop-color="#DB908A"/><stop offset="0.52" stop-color="#F2ACA5"/><stop offset="1" stop-color="#B76A64"/></linearGradient><linearGradient x1="1891.5" y1="773" x2="1891.5" y2="1039" gradientUnits="userSpaceOnUse" spreadMethod="reflect" id="fill3"><stop offset="0" stop-color="#DB908A"/><stop offset="0.04" stop-color="#DB908A"/><stop offset="0.52" stop-color="#F2ACA5"/><stop offset="1" stop-color="#B76A64"/></linearGradient><linearGradient x1="1941.5" y1="1221" x2="1941.5" y2="1729" gradientUnits="userSpaceOnUse" spreadMethod="reflect" id="fill4"><stop offset="0" stop-color="#DB908A"/><stop offset="0.04" stop-color="#DB908A"/><stop offset="0.52" stop-color="#F2ACA5"/><stop offset="1" stop-color="#B76A64"/></linearGradient><linearGradient x1="1859.5" y1="1225" x2="1859.5" y2="1673" gradientUnits="userSpaceOnUse" spreadMethod="reflect" id="fill5"><stop offset="0" stop-color="#DB908A"/><stop offset="0.04" stop-color="#DB908A"/><stop offset="0.52" stop-color="#F2ACA5"/><stop offset="1" stop-color="#B76A64"/></linearGradient><linearGradient x1="1775" y1="1217" x2="1775" y2="1607" gradientUnits="userSpaceOnUse" spreadMethod="reflect" id="fill6"><stop offset="0" stop-color="#DB908A"/><stop offset="0.04" stop-color="#DB908A"/><stop offset="0.52" stop-color="#F2ACA5"/><stop offset="1" stop-color="#B76A64"/></linearGradient><linearGradient x1="1689.5" y1="1202" x2="1689.5" y2="1499" gradientUnits="userSpaceOnUse" spreadMethod="reflect" id="fill7"><stop offset="0" stop-color="#DB908A"/><stop offset="0.04" stop-color="#DB908A"/><stop offset="0.52" stop-color="#F2ACA5"/><stop offset="1" stop-color="#B76A64"/></linearGradient><linearGradient x1="1711.5" y1="481" x2="1711.5" y2="560" gradientUnits="userSpaceOnUse" spreadMethod="reflect" id="fill8"><stop offset="0" stop-color="#DB908A"/><stop offset="0.04" stop-color="#DB908A"/><stop offset="0.52" stop-color="#F2ACA5"/><stop offset="1" stop-color="#B76A64"/></linearGradient><linearGradient x1="2195.5" y1="1713" x2="2195.5" y2="1767" gradientUnits="userSpaceOnUse" spreadMethod="reflect" id="fill9"><stop offset="0" stop-color="#DB908A"/><stop offset="0.04" stop-color="#DB908A"/><stop offset="0.52" stop-color="#F2ACA5"/><stop offset="1" stop-color="#B76A64"/></linearGradient><linearGradient x1="21.0001" y1="4.72701e-05" x2="21.0001" y2="508" gradientUnits="userSpaceOnUse" spreadMethod="reflect" id="fill10"><stop offset="0" stop-color="#DB908A"/><stop offset="0.04" stop-color="#DB908A"/><stop offset="0.52" stop-color="#F2ACA5"/><stop offset="1" stop-color="#B76A64"/></linearGradient><linearGradient x1="18.9999" y1="0.00016108" x2="18.9999" y2="447" gradientUnits="userSpaceOnUse" spreadMethod="reflect" id="fill11"><stop offset="0" stop-color="#DB908A"/><stop offset="0.04" stop-color="#DB908A"/><stop offset="0.52" stop-color="#F2ACA5"/><stop offset="1" stop-color="#B76A64"/></linearGradient><linearGradient x1="21.0001" y1="9.81354e-06" x2="21.0001" y2="389" gradientUnits="userSpaceOnUse" spreadMethod="reflect" id="fill12"><stop offset="0" stop-color="#DB908A"/><stop offset="0.04" stop-color="#DB908A"/><stop offset="0.52" stop-color="#F2ACA5"/><stop offset="1" stop-color="#B76A64"/></linearGradient><linearGradient x1="19.4999" y1="-1.16897e-05" x2="19.4999" y2="298" gradientUnits="userSpaceOnUse" spreadMethod="reflect" id="fill13"><stop offset="0" stop-color="#DB908A"/><stop offset="0.04" stop-color="#DB908A"/><stop offset="0.52" stop-color="#F2ACA5"/><stop offset="1" stop-color="#B76A64"/></linearGradient></defs><g clip-path="url(#clip0)" transform="translate(-1533 -193)"><path d="M1753.19 1158.95C1735.4 1150.94 1719.41 1146.28 1700.82 1136.31 1673.92 1121.89 1627.25 1090.62 1600.42 1057.93 1573.6 1025.24 1550.28 976.848 1539.86 940.153 1529.43 903.457 1532.69 871.667 1537.86 837.756 1545.98 784.531 1570.63 739.024 1607.58 699.625 1636.11 669.193 1670.85 648.985 1709.36 635.402 1740.93 624.268 1774.02 619.303 1807.78 622.32 1815.07 622.971 1818.46 626.091 1821.47 634.574 1824.48 643.056 1827.17 662.091 1825.84 673.215 1764.37 669.739 1718.02 679.714 1684.63 694.441 1650.37 709.549 1632.1 728.835 1615.18 751.271 1598.26 773.706 1587.39 800.496 1583.1 829.052 1580.35 847.311 1578.19 865.669 1579.13 884.143 1581.75 935.874 1597.4 982.413 1630.57 1023.41 1656.98 1056.06 1689.73 1079.58 1726.82 1097.2 1748.91 1107.69 1772.49 1114.59 1797.21 1118.22 1825.26 1122.34 1853.27 1122.73 1881.28 1121.61 1907.22 1120.57 1932.03 1112.94 1956.66 1104.49 1989.29 1093.29 2016.34 1085.43 2050.4 1062.29 2084.47 1039.14 2104.05 1020.84 2161.04 965.629 2097.19 907.727 2032.48 851.64 1968.82 790.251 1958.25 808.306 1949.63 821.259 1939.69 838.585 1929.74 855.912 1913.45 884.86 1898.83 899.365 1884.22 913.869 1866.3 921.401 1852 925.611 1837.69 929.821 1823.93 926.272 1813 924.623 1822.14 912.615 1816.22 921.437 1826.08 910.239 1835.95 899.04 1858.65 875.099 1872.18 857.432 1885.71 839.766 1896.82 820.692 1907.24 804.238 1917.65 787.785 1927.67 772.171 1934.68 758.71 1938.57 751.232 1937.74 757.2 1929.24 744.348 1920.74 731.496 1895.86 704.639 1883.67 681.599 1864.92 646.153 1846.56 610.426 1839.94 570.282 1836.33 548.379 1831.92 526.277 1834.43 504.009 1836.44 486.149 1840.01 468.367 1844.23 450.875 1851.15 422.257 1861.31 394.777 1874.98 368.543 1892 335.889 1915.51 309.026 1942.62 284.24 1968.91 260.2 1998.92 243.061 2030.46 227.73 2063.08 211.876 2097.69 202.773 2133.33 197.26 2149.95 194.688 2166.71 192.391 2183.55 193.146 2224.07 194.96 2263.46 202.139 2301.66 216.593 2329.15 226.997 2354.65 240.631 2379.14 256.6 2415.54 280.338 2444.93 310.966 2468.27 347.397 2473.53 355.593 2479.12 359.257 2489.39 358.875 2542.09 356.915 2590.64 370.088 2632.65 402.728 2665.42 428.193 2685.29 461.483 2688.46 503.624 2689.61 518.865 2687.91 533.516 2678.52 546.324 2665.84 563.629 2643.78 567.301 2627.09 553.799 2609.27 539.37 2605.48 520.146 2610.87 498.442 2615.91 478.115 2627.03 467.694 2648.2 464.045 2649.42 463.835 2650.59 463.345 2651.73 463.004 2646.51 415.327 2555.61 370.647 2492.3 384.329 2491.03 387.901 2493.35 390.612 2494.82 393.348 2510.04 421.801 2517.26 452.353 2519.61 484.351 2520.67 498.774 2525.4 512.894 2524.48 527.486 2522.51 558.379 2518.49 588.831 2511.47 619.211 2506.13 642.302 2500.75 658.664 2487.05 684.189 2473.35 709.713 2447.01 750.927 2429.28 772.357 2412.23 792.969 2405.84 797.625 2390.97 812.77 2376.11 827.914 2352.53 847.895 2340.09 863.226 2327.66 878.557 2327.21 877.172 2336.98 889.297 2352.83 908.962 2393.58 962.877 2439.96 977.198 2496.07 994.523 2550.44 991.287 2599.51 955.04 2612.2 945.668 2621.79 933.32 2629.56 919.578 2634.94 910.064 2637.68 900.212 2637.58 888.994 2637.15 839.924 2637.62 790.847 2637.21 741.778 2637.14 732.336 2640.11 729.169 2649.45 729.576 2663.72 730.2 2678.06 730.056 2692.35 729.625 2700.38 729.383 2703.03 732.31 2703.01 740.37 2702.78 822.59 2702.89 904.81 2702.78 987.032 2702.78 990.577 2704.69 995.509 2699.49 997.093 2693.8 998.83 2691.54 994.072 2689.08 990.273L2658.94 943.593C2657.57 941.475 2655.83 939.595 2654.52 937.942 2651.12 937.838 2649.83 939.946 2648.45 941.635 2616.21 980.971 2572.71 999.072 2523.9 1004.95 2438.57 1015.22 2366.67 987.13 2307.4 925.496 2301.38 919.235 2296.84 911.583 2287.84 904.719L2259.07 934.956C2249.73 944.676 2243.72 949.854 2230.08 963.894 2285.33 1015.98 2306.49 1034.54 2342.09 1058.27 2377.69 1081.99 2408.32 1093.21 2443.68 1106.22 2485.08 1121.45 2527.66 1128.48 2571.31 1124.65 2610.63 1121.21 2649.09 1113.4 2684.76 1094.25 2712.47 1079.37 2738.26 1062.59 2759.57 1039.35 2794.97 1000.76 2816.58 956.391 2821.28 903.391 2823.87 874.251 2821.9 845.889 2816.4 817.643 2811 789.884 2799.11 766.494 2778.85 744.553 2758.59 722.612 2721.86 698.268 2694.84 685.996 2667.82 673.723 2642.82 670.808 2616.73 670.917 2602.87 668.724 2589 673.401 2576.85 673.784 2578.13 654.607 2578.42 651.057 2580.76 638.548 2582.27 630.521 2583.94 624.231 2594.61 624.492 2616.47 625.026 2674.05 629.346 2711.78 645.264 2747.27 660.232 2777.72 681.64 2802.42 710.628 2830.19 743.217 2850.74 779.632 2860.7 822.21 2868.02 853.499 2867.58 884.803 2866.16 916.04 2864.63 949.743 2850.11 982.416 2835.4 1010.13 2820.69 1037.85 2800.1 1060.35 2777.89 1082.34 2751.32 1108.66 2716.67 1130.87 2686.83 1145.67 2657 1160.47 2632.31 1167.78 2598.86 1171.14 2565.41 1174.51 2526.52 1173.61 2486.15 1165.85 2445.77 1158.08 2391.62 1136.04 2356.61 1119.39 2321.59 1102.74 2302.76 1086.39 2276.05 1065.95 2249.33 1045.51 2234.1 1032.2 2196.33 996.733 2163.72 1026.53 2151.75 1037.3 2131.89 1054.07 2112.02 1070.85 2097.12 1084.95 2077.14 1097.39 2041.47 1119.61 2003.98 1137.47 1964.2 1151.13 1927.43 1163.75 1889.61 1168.07 1851.19 1171.12 1817.67 1173.78 1786.1 1164.92 1753.19 1158.95M2165.18 240.957C2149.73 242.316 2134.61 243.855 2115.85 247.874 2082.7 254.976 2056.96 261.537 2026.37 279.919 1995.77 298.301 1956.21 323.037 1932.29 358.165 1921.04 374.678 1909.81 391.068 1903.77 410.341 1901.55 417.439 1900.1 424.789 1897.72 431.83 1890.75 452.474 1886.67 473.868 1885.42 495.371 1883.45 529.015 1881.79 559.587 1894.51 595.444 1907.23 631.301 1931.22 677.593 1961.75 710.514 1983.87 670.51 1965.93 703.692 1991.16 654.259 2022.84 592.148 2109.83 394.638 2138.85 331.479 2167.86 268.319 2155.99 293.794 2165.26 275.303 2171.36 263.149 2179.06 249.176 2190.28 271.635 2206.54 304.174 2263.48 428.76 2279 461.586 2281.87 467.674 2280.88 467.146 2284.86 467.887 2321.11 418.662 2367.76 383.488 2426.72 366.769 2426.98 362.276 2425.23 359.944 2423.27 357.753 2405.54 337.964 2388.07 318.035 2365.91 302.721 2340.77 285.356 2315.45 268.385 2286.24 258.638 2247.61 245.744 2207.72 240.512 2165.18 240.957M2000.68 734.666C1998.05 739.941 1997.38 744.851 2001.69 749.983 2026.13 779.149 2049.7 799.692 2082.15 830.306 2114.59 860.921 2119.96 868.876 2196.38 933.668 2228.98 901.423 2246.5 886.589 2257.15 873.847 2267.8 861.106 2263.84 864.193 2260.3 857.217 2227.73 793.008 2216.17 724.721 2221.48 653.273 2222.43 640.433 2223.55 627.606 2224.57 615.089 2220.54 612.622 2240.07 613.681 2213.38 613.412L2064.46 613.472M2402.83 735.023C2414.32 719.364 2425.5 705.626 2434.42 690.154 2450.78 661.732 2460.62 630.956 2467.31 599.168 2473.9 567.882 2477.36 536.552 2474.34 504.115 2471.5 473.624 2468.2 443.693 2455.83 415.504 2444.25 389.116 2450.02 388.268 2422.51 401.604 2367.15 428.433 2335.07 475.375 2314.12 531.308 2312.83 534.748 2313.78 537.457 2315.18 540.54M2170 378.914C2085.31 560.188 2164.23 384.958 2082.71 569.392L2229.72 569.292C2232.89 569.78 2233.73 571.549 2235.75 567.166 2237.78 562.783 2238.21 553.649 2241.87 542.994M2350.6 777.038C2304.53 670.034 2347.06 767.664 2291.26 648.259 2287.38 709.698 2292.02 767.932 2309.6 828.323 2321.3 816.098 2331 805.765 2340.93 795.646 2352.19 784.162 2350.45 784.039 2350.6 777.038Z" fill="url(#fill1)" fill-rule="evenodd"/><path d="M2028.36 1402.29C2027.88 1384.25 2026.95 1366.97 2032.93 1350.4 2042.34 1324.35 2056.86 1302.64 2082.7 1289.85 2098.76 1281.89 2116.22 1278.11 2133.28 1278 2153.97 1277.87 2173.85 1284.9 2189.58 1300.01 2190.98 1301.36 2192.42 1302.67 2193.91 1303.92 2194.38 1304.31 2195.08 1304.41 2196.27 1304.88 2210.83 1293.16 2227.44 1284.97 2246.21 1281.17 2299.56 1270.36 2348.02 1306.39 2357.91 1357.44 2361.32 1375.08 2364.93 1389.59 2358.24 1410.6 2351.56 1431.62 2342.24 1453.46 2317.79 1483.52 2293.33 1513.58 2233.26 1571.14 2211.51 1590.96 2196.17 1604.95 2189.64 1603 2179.37 1593.19 2144.41 1559.75 2100.2 1522.39 2075.28 1492.07 2050.36 1461.75 2034.58 1444.26 2029.86 1411.28 2029.55 1409.08 2029.23 1405.28 2028.36 1402.29M2078.19 1357.19C2076.43 1361.7 2075.56 1368.42 2074.94 1373.42 2070.05 1413.1 2095.3 1444.11 2112.97 1467.36 2130.64 1490.61 2151.69 1505.81 2165.51 1518.06 2179.32 1530.32 2185.77 1540.71 2195.88 1540.89 2205.98 1541.07 2209.64 1535.71 2226.13 1519.13 2242.63 1502.54 2281.09 1468.64 2294.84 1441.37 2308.6 1414.09 2321.77 1387.38 2308.66 1355.45 2296.39 1325.57 2259.66 1318.14 2235.22 1334.22 2225.71 1340.48 2219.17 1349.1 2212.94 1358.29 2202.89 1373.14 2184.75 1377.73 2171.12 1355.46 2160.22 1330.73 2136.41 1320.71 2109.99 1327.96 2095.26 1332.01 2083.37 1339.02 2078.19 1357.19Z" fill="url(#fill2)" fill-rule="evenodd"/><path d="M1819.69 802.287C1804.83 814.943 1792.08 827.775 1784.77 843.827 1777.47 859.88 1774.02 880.14 1775.86 898.6 1778.67 926.841 1791.42 951.015 1816.56 965.872 1853.93 987.961 1893.86 993.034 1935.89 980.854 1960.81 973.637 1981.18 959.167 1999.99 942.167 2013.44 930.011 2025.06 915.909 2039.55 904.797 2043.79 901.543 2048.38 897.503 2053.11 900.7 2057.55 903.71 2058.7 909.204 2057.62 915.505 2053.64 938.603 2037.28 954.106 2024.32 971.622 1998.51 1006.51 1961.26 1023.83 1921.16 1034.68 1896.1 1041.46 1870.13 1039.81 1844.56 1032.89 1812.92 1024.34 1785.12 1009.79 1762.02 986.228 1749.42 973.377 1741.54 957.963 1735.72 941.341 1729.45 923.462 1724.34 904.983 1725.07 886.032 1726.24 855.714 1736.54 836.203 1745.28 821.773 1754.03 807.343 1768.83 795.211 1782.82 787.082 1796.8 778.953 1812.08 772.898 1829.2 773.001 1834.48 773.033 1837.91 774.895 1841.29 777.637 1848 783.084 1847.34 788.003 1839.46 791.434 1833.53 794.023 1828.87 795.675 1819.69 802.287Z" fill="url(#fill3)" fill-rule="evenodd"/><path d="M1921 1245.14C1921.12 1216.61 1919.07 1221.39 1943.28 1221.18 1964.31 1221.01 1961.91 1219.06 1961.92 1239.75 1961.97 1394.85 1961.92 1549.96 1961.98 1705.06 1961.98 1714.47 1961.99 1723.89 1951.69 1728.01 1943.31 1731.36 1932.02 1725.88 1925.23 1716.32 1921.67 1711.31 1921 1705.74 1921 1699.71 1921.06 1548.51 1921.02 1397.31 1921 1245.14Z" fill="url(#fill4)" fill-rule="evenodd"/><path d="M1862.07 1673C1847.05 1668.59 1841.16 1660.79 1841.16 1646.39 1841.1 1513.23 1841.04 1380.06 1841 1246.9 1841 1242.34 1841.1 1237.79 1841.14 1233.23 1841.18 1227.68 1843.69 1224.86 1849.47 1225.03 1855.94 1225.23 1862.42 1225.3 1868.88 1225.02 1875.74 1224.72 1878.1 1228.22 1878 1234.54 1877.89 1241.04 1877.98 1247.56 1877.98 1254.07 1877.97 1386.58 1877.97 1519.09 1877.95 1651.61 1877.95 1665.21 1875.53 1668.51 1862.07 1673Z" fill="url(#fill5)" fill-rule="evenodd"/><path d="M1754.08 1563.24C1754.05 1451.92 1754.02 1341.56 1754 1231.21 1754 1217.15 1754.03 1216.96 1768.11 1217.11 1799.75 1217.45 1795.83 1212.4 1795.86 1244.31 1795.99 1356.95 1795.89 1469.58 1795.85 1582.21 1795.85 1598.7 1789.16 1607.29 1776.7 1606.99 1762.57 1606.66 1754.09 1596.86 1754.08 1580.82 1754.07 1575.29 1754.08 1569.75 1754.08 1563.24Z" fill="url(#fill6)" fill-rule="evenodd"/><path d="M1709 1297.95C1708.99 1356.29 1708.98 1413.65 1708.95 1471.02 1708.95 1474.25 1709.13 1477.56 1708.51 1480.7 1706.36 1491.75 1699.13 1499.15 1691.07 1499 1682.8 1498.84 1671.27 1487.48 1670.17 1478.29 1669.91 1476.05 1670.03 1473.75 1670.03 1471.49 1670.02 1385.93 1670.01 1300.37 1670.03 1214.81 1670.03 1202.08 1670.07 1202.08 1683.32 1202.02 1709 1201.89 1709 1201.89 1709 1226.98 1709 1250.31 1709 1273.65 1709 1297.95Z" fill="url(#fill7)" fill-rule="evenodd"/><path d="M1752 505.794C1749.99 531.333 1732.8 545.362 1714.85 558.834 1712.42 560.661 1709.95 560.188 1707.64 558.475 1692.54 547.299 1678.62 535.115 1672.77 516.338 1669.31 505.212 1670.59 494.745 1679.58 486.756 1688.23 479.068 1697.96 479.479 1707.52 485.629 1710.33 487.437 1712.78 486.954 1715.73 485.602 1735.88 476.374 1747.9 482.887 1752 505.794Z" fill="url(#fill8)" fill-rule="evenodd"/><path d="M2196.36 1767C2174.99 1767.3 2170.08 1749.09 2170 1740.09 2169.92 1731.09 2175.36 1712.45 2195.87 1713.01 2216.39 1713.57 2220.92 1729.27 2221 1738.27 2221.08 1747.27 2217.74 1766.69 2196.36 1767Z" fill="url(#fill9)" fill-rule="evenodd"/><path d="M0.0040062 24.1368C0.122007-4.38911-1.97724 0.389333 22.8233 0.184383 44.3661 0.00685572 41.9125-1.93837 41.9184 18.7497 41.9657 173.854 41.9165 328.96 41.9774 484.065 41.9814 493.467 41.993 502.887 31.4352 507.012 22.8587 510.362 11.2924 504.876 4.33471 495.323 0.68324 490.309-0.001821 484.74 0 478.713 0.0648276 327.509 0.025494 176.306 0.0040062 24.1368Z" fill="url(#fill10)" fill-rule="evenodd" transform="matrix(-1 0 0 1 2470 1219)"/><path d="M21.6408 447C6.21645 442.596 0.167444 434.821 0.161543 420.451 0.101794 287.585 0.0457336 154.718 0 21.8525-0.0018441 17.3054 0.0995812 12.7584 0.139414 8.20919 0.189573 2.66981 2.76209-0.143875 8.70155 0.0313713 15.3407 0.22645 21.9997 0.300371 28.6329 0.0180295 35.6833-0.282342 38.1023 3.21754 37.9965 9.5138 37.8888 16.0087 37.9766 22.5055 37.9766 29.0026 37.9707 161.221 37.9688 293.437 37.9467 425.653 37.9448 439.222 35.4638 442.523 21.6408 447Z" fill="url(#fill11)" fill-rule="evenodd" transform="matrix(-1 0 0 1 2551 1224)"/><path d="M0.0808679 345.355C0.051362 234.314 0.0196706 124.244 0 14.1737-0.00182135 0.154685 0.0254989-0.042187 14.1056 0.108172 45.7497 0.445307 41.8258-4.59297 41.8633 27.2448 41.9894 139.587 41.8888 251.93 41.8535 364.272 41.8495 380.724 35.1582 389.287 22.6976 388.993 8.57054 388.659 0.0947101 378.884 0.0750396 362.887 0.0670256 357.367 0.0786823 351.848 0.0808679 345.355Z" fill="url(#fill12)" fill-rule="evenodd" transform="matrix(-1 0 0 1 2638 1216)"/><path d="M38.9958 96.2774C38.9859 154.81 38.9819 212.367 38.9503 269.924 38.9481 273.169 39.1267 276.491 38.514 279.643 36.3589 290.727 29.1285 298.154 21.0728 297.998 12.8034 297.838 1.27228 286.445 0.174159 277.215-0.0938624 274.968 0.0271321 272.669 0.0271321 270.392 0.0194325 184.547 0.0113662 98.6988 0.0252989 12.8513 0.0271321 0.0776459 0.0747966 0.0776459 13.3189 0.015168 38.998-0.105815 38.9998-0.105815 38.9998 25.0627 38.9998 48.4753 38.9958 71.8882 38.9958 96.2774Z" fill="url(#fill13)" fill-rule="evenodd" transform="matrix(-1 0 0 1 2723 1200)"/></g></svg>